<svg id="Слой_1" xmlns="http://www.w3.org/2000/svg" viewBox="0 0 156 32"><style>.st0{fill:#cc485a}</style><path d="M112.5 29l-3.9-9.6h-1.4l-4 9.6-3.6-9.6h-1.9l4.8 12.3h1.4l4-9.6 3.9 9.6h1.5l4.8-12.3h-2zM38.6 20.8c1.5 0 3.1.3 4.4 1l.7-1.6c-1.5-.7-3.2-1.2-5.1-1.2-4 0-7.2 1.9-7.2 6.5s3.2 6.5 7.2 6.5c1.9 0 3.6-.4 5.1-1.2l-.7-1.6c-1.3.6-2.8 1-4.4 1-2.9 0-5.3-1.3-5.3-4.7 0-3.3 2.5-4.7 5.3-4.7zM46.8 13.5h1.9v18.2h-1.9zM58.8 19.1C55 19.1 52 21 52 25.6s3.1 6.5 7.1 6.5c1.9 0 4-.4 5.7-1.2l-.8-1.6c-1.4.6-3.3 1-4.9 1-2.8 0-4.9-1.1-5.2-3.8h11.6c.1-.4.1-.8.1-1.2 0-4.4-3.2-6.2-6.8-6.2zm-4.9 5.5c.3-2.7 2.3-3.8 4.9-3.8 2.5 0 4.5 1.1 4.8 3.8h-9.7zM90.8 19.2c-1.7 0-3.1 1-3.9 2.5v-2.4H85v12.3h2v-6.2c0-3 2.2-4.6 3.9-4.6.5 0 .8.1 1.2.1l.5-1.6c-.7-.1-1.4-.1-1.8-.1zM94.7 29.3c-.8 0-1.3.6-1.3 1.4 0 .8.6 1.4 1.3 1.4.8 0 1.3-.6 1.3-1.4 0-.8-.6-1.4-1.3-1.4zM121.6 14c-.8 0-1.3.6-1.3 1.4 0 .8.6 1.4 1.3 1.4.8 0 1.3-.6 1.3-1.4 0-.8-.5-1.4-1.3-1.4zM133.6 19.1c-2.3 0-4.2.8-5.2 2.7v-2.4h-1.9v12.3h1.9v-6.2c0-3.4 2.4-4.7 4.9-4.7 2.3 0 3.9 1.2 3.9 4v6.8h1.9v-6.8c0-4-2.2-5.7-5.5-5.7zM156 25.2c0-4.3-3.2-6.2-6.8-6.2-3.8 0-6.8 1.9-6.8 6.5s3.1 6.5 7.1 6.5c1.9 0 4-.4 5.7-1.2l-.7-1.6c-1.4.6-3.3 1-4.9 1-2.8 0-4.9-1.1-5.2-3.8H156v-1.2zm-11.7-.6c.3-2.7 2.3-3.8 4.9-3.8 2.5 0 4.5 1.1 4.8 3.8h-9.7zM120.6 19.4h1.9v12.3h-1.9zM79.2 19.4v1.1c-1.3-.9-3-1.4-4.7-1.4-3.6 0-6.6 1.9-6.6 6.5s3 6.5 6.6 6.5c1.8 0 3.4-.5 4.7-1.4v1.1h1.9V19.4H79.2zm-4.8 10.8c-2.6 0-4.7-1.4-4.7-4.7 0-3.3 2.1-4.7 4.7-4.7 1.9 0 3.5.6 4.7 1.8v5.8c-1.1 1.3-2.8 1.8-4.7 1.8z"/><g><path class="st0" d="M4.6 15.8c1.7 1.5 3.6 1.8 4.9 1.8 1.4 0 3.3-.3 4.9-1.8 1.3-1.2 1.8-2.9 1.8-4.7H2.8c0 1.8.5 3.5 1.8 4.7z"/><path d="M11.5 20.7c1.8-.3 3.4-1.1 4.9-2.4 3.8-3.4 2.9-8.9.7-13.6-.2.1-.3.3-.5.4 1.5 3.8 2.2 9-1 11.9-1.7 1.5-3.9 2.2-6 2.2s-4.3-.6-6-2.2C.2 14.2.9 9 2.5 5.2c-.2-.2-.4-.3-.6-.4-2.2 4.7-3.2 10.2.7 13.6 1.5 1.3 3.2 2.1 4.9 2.4.7.1 1.2.7 1.2 1.4v5.3c0 .6-.4 1.2-1 1.4l-3.6 1c0 1.4 3.3 1.9 5.5 1.9s5.5-.5 5.5-1.9l-3.6-1c-.6-.2-1-.7-1-1.4v-5.3c-.2-.8.3-1.3 1-1.5z"/><path class="st0" d="M9.5 4.3C8.9 4.3 3 4.2 3 2.2 3 .1 8.9 0 9.5 0S16 .1 16 2.2c0 2-5.8 2.1-6.5 2.1zM4.3 2.2c.4.4 2.3.9 5.2.9 2.9 0 4.7-.5 5.2-.9-.4-.4-2.3-.9-5.2-.9-2.8-.1-4.7.5-5.2.9z"/></g></svg>