<svg version="1.1" id="Слой_1" xmlns="http://www.w3.org/2000/svg" x="0" y="0" viewBox="0 0 120 53" xml:space="preserve"><style>.st0{fill:#cc485a}.st1{fill:#fff}</style><path class="st0" d="M55.4 14.6c1.5 1.4 3.4 1.6 4.6 1.6 1.3 0 3.1-.3 4.6-1.6 1.2-1.1 1.7-2.7 1.6-4.3H53.8c0 1.6.4 3.2 1.6 4.3z"/><path class="st1" d="M61.9 19.2c1.6-.3 3.2-1 4.6-2.2 3.6-3.1 2.7-8.2.6-12.5-.1.1-.3.3-.5.4 1.4 3.5 2.1 8.3-1 11-1.6 1.4-3.6 2-5.6 2-2 0-4-.6-5.6-2-3-2.7-2.4-7.5-1-11-.2-.1-.4-.2-.5-.4-2.1 4.3-3 9.4.6 12.5 1.4 1.2 2.9 1.9 4.6 2.2.6.1 1.1.6 1.1 1.3v4.9c0 .6-.4 1.1-1 1.3l-3.4.9c0 1.3 3.1 1.8 5.1 1.8 2.1 0 5.1-.5 5.1-1.8l-3.4-.9c-.6-.2-1-.7-1-1.3v-4.9c.2-.7.7-1.2 1.3-1.3z"/><path class="st0" d="M60 4c-.6 0-6-.1-6-2s5.4-2 6-2c.6 0 6 .1 6 2 .1 1.9-5.4 2-6 2zm-4.8-2c.4.3 2.2.8 4.8.8 2.7 0 4.4-.5 4.8-.8-.4-.3-2.2-.8-4.8-.8-2.6 0-4.4.5-4.8.8z"/><g><path class="st1" d="M78.1 50.2l-3.8-9.3h-1.4l-3.7 9.3-3.5-9.3h-1.9l4.6 11.8h1.4l3.8-9.2 3.8 9.2h1.5l4.6-11.8h-1.9zM6.9 42.3c1.5 0 3 .3 4.2.9l.7-1.5c-1.5-.7-3.1-1.1-4.9-1.1C3 40.6 0 42.4 0 46.8S3.1 53 6.9 53c1.8 0 3.4-.4 4.9-1.1l-.7-1.5c-1.3.6-2.7.9-4.2.9-2.8 0-5.1-1.3-5.1-4.5s2.4-4.5 5.1-4.5zM14.8 35.4h1.8v17.3h-1.8zM26.4 40.6c-3.6 0-6.6 1.8-6.6 6.2s3 6.2 6.8 6.2c1.9 0 3.9-.4 5.5-1.1l-.7-1.5c-1.3.6-3.2.9-4.7.9-2.7 0-4.7-1-5-3.7h11.2c.1-.4.1-.7.1-1.1-.1-4.1-3.1-5.9-6.6-5.9zM21.6 46c.3-2.6 2.3-3.6 4.7-3.6 2.4 0 4.3 1 4.7 3.6h-9.4zM57.2 40.8c-1.6 0-3 .9-3.7 2.4v-2.3h-1.8v11.7h1.8v-5.9c0-2.9 2.1-4.4 3.8-4.4.5 0 .8 0 1.2.1l.4-1.5c-.6-.1-1.3-.1-1.7-.1zM60.9 50.4c-.7 0-1.3.6-1.3 1.3 0 .7.6 1.3 1.3 1.3.7 0 1.3-.6 1.3-1.3 0-.7-.5-1.3-1.3-1.3zM86.8 35.8c-.7 0-1.3.6-1.3 1.3 0 .7.6 1.3 1.3 1.3.7 0 1.3-.6 1.3-1.3 0-.7-.5-1.3-1.3-1.3zM98.4 40.6c-2.2 0-4.1.8-5 2.6v-2.3h-1.8v11.7h1.8v-5.9c0-3.2 2.4-4.5 4.7-4.5 2.2 0 3.7 1.1 3.7 3.9v6.5h1.8v-6.5c.1-3.8-2-5.5-5.2-5.5zM120 46.5c0-4.1-3.1-5.9-6.5-5.9-3.6 0-6.6 1.8-6.6 6.2s3 6.2 6.8 6.2c1.9 0 3.9-.4 5.5-1.1l-.7-1.5c-1.3.6-3.2.9-4.7.9-2.7 0-4.7-1-5-3.7H120v-1.1zm-11.3-.5c.3-2.6 2.3-3.6 4.7-3.6 2.4 0 4.3 1 4.7 3.6h-9.4zM85.9 40.9h1.8v11.8h-1.8zM46 40.9v1c-1.3-.9-2.9-1.3-4.6-1.3-3.5 0-6.4 1.8-6.4 6.2s2.9 6.2 6.4 6.2c1.7 0 3.3-.4 4.6-1.3v1h1.8V40.9H46zm-4.6 10.4c-2.5 0-4.5-1.3-4.5-4.5s2-4.5 4.5-4.5c1.8 0 3.4.5 4.6 1.7v5.6c-1.2 1.2-2.8 1.7-4.6 1.7z"/></g></svg>