<svg version="1.1" id="Layer_1" xmlns="http://www.w3.org/2000/svg" x="0" y="0" viewBox="0 0 42 30" xml:space="preserve"><style>.st0{fill:#262626}</style><path class="st0" d="M32.7 11.3c-.1-.9.1-3.1 2.2-6.2.2-.3.2-.7-.1-1-.8-.8-1.4-1.3-1.8-1.7l-.1-.1-1.1-1.1c-.3-.3-.7-.3-1 0-3.9 3.4-8.3 10.4-7.7 19 .4 5.1 4.1 8.8 9 8.8s9-4 9-8.9c-.1-4.6-3.7-8.4-8.4-8.8zm-1.4 1.1c.1.3.4.4.7.4 4.1 0 7.4 3.3 7.4 7.3s-3.3 7.3-7.4 7.3c-4 0-7.1-3.1-7.4-7.4-.7-9.3 4.8-15.5 6.7-17.3l.6.6 1.4 1.4c-2.7 4.3-2.2 7.3-2 7.7zM10.7 11.3c-.1-.9.1-3.1 2.2-6.2.2-.3.2-.7-.1-1L11 2.3 9.9 1.2c-.3-.3-.7-.3-1 0C5 4.6.6 11.6 1.2 20.2c.4 5.1 4.1 8.8 9 8.8s9-4 9-8.9c-.2-4.6-3.9-8.5-8.5-8.8zm-1.4 1.1c.1.3.4.4.7.4 4.1 0 7.4 3.3 7.4 7.3s-3.3 7.3-7.4 7.3c-4 0-7.1-3.1-7.4-7.4-.7-9.2 4.8-15.4 6.7-17.2.1.2.3.3.5.6l1.4 1.4C8.5 9 9.1 12 9.3 12.4z"/></svg>