<?xml version="1.0" encoding="utf-8"?><svg xmlns="http://www.w3.org/2000/svg" xmlns:xlink="http://www.w3.org/1999/xlink"><symbol id="advanced-search" viewBox="0 0 44 47" xmlns="http://www.w3.org/2000/svg"><style>.aast0{fill:#262626}</style><path class="aast0" d="M41.9 39.8L35 33c1.9-2.8 2.9-6 3.1-9.3h2.4c.5 0 .9-.4.9-.9 0-5.8-2.3-11.3-6.4-15.4C30.9 3.3 25.4 1 19.6 1c-.5 0-.9.4-.9.9v2.4C8.9 4.8 1 12.9 1 22.7c0 10.2 8.3 18.5 18.6 18.5 3.7 0 7.3-1.1 10.3-3.1l6.9 6.8c.7.7 1.6 1.1 2.6 1.1.9 0 1.9-.4 2.6-1.1 1.4-1.4 1.4-3.7-.1-5.1zm-8.2-8.1l-1.1-1.1c-.4-.4-.9-.3-1.3 0L30 31.9l-1.8-1.8c1.5-1.8 2.5-4 2.7-6.5h5.4c-.1 2.9-1 5.7-2.6 8.1zM20.5 2.8c10.4.5 18.7 8.7 19.2 19H31c-.4-5.6-4.9-10-10.5-10.4V2.8zm0 10.4c4.6.4 8.3 4.1 8.7 8.6h-8.7v-8.6zm-.9 10.4h9.6c-.5 4.9-4.6 8.7-9.6 8.7-5.3 0-9.6-4.3-9.6-9.6 0-5 3.8-9.1 8.7-9.5v9.5c0 .5.4.9.9.9zm7.9 12.1l1.1 1.1c-2.7 1.7-5.8 2.6-9 2.6-9.3 0-16.8-7.5-16.8-16.7 0-8.9 7-16.2 15.9-16.6v5.3c-5.9.5-10.5 5.4-10.5 11.3 0 6.3 5.1 11.4 11.4 11.4 2.8 0 5.4-1 7.4-2.7l1.8 1.8-1.3 1.3c-.2.2-.3.4-.3.6 0 .2.1.4.3.6zm13.2 8c-.7.7-1.9.7-2.6 0l-8.7-8.6 2.6-2.6 8.7 8.6c.7.7.7 1.9 0 2.6z"/><path class="aast0" d="M17.9 15.5c-.2-.5-.7-.7-1.2-.5-2.1.7-3.8 2.3-4.7 4.3-.2.4 0 1 .4 1.2.1.1.3.1.4.1.3 0 .7-.2.8-.5.7-1.6 2.1-2.8 3.7-3.4.5-.3.8-.8.6-1.2zm-5.7 5.8c-.5 0-.9.3-1 .8v.7c0 .5.4.9.9.9s.9-.4.9-.9v-.5c.1-.6-.3-1-.8-1z"/></symbol><symbol id="arrow-right" viewBox="0 0 12 9" xmlns="http://www.w3.org/2000/svg"><style>.abst0{fill:#262626}</style><path class="abst0" d="M10.9 4.2l-3-3c-.2-.2-.5-.2-.7-.1-.2.2-.2.5 0 .7L9.4 4H1.5c-.3 0-.5.2-.5.5s.2.5.5.5h7.9L7.2 7.2c-.2.2-.2.5 0 .7.1.1.2.1.4.1s.2 0 .3-.1l3-3c.1-.3.1-.5 0-.7z"/></symbol><symbol id="barrel" viewBox="0 0 24 24" xmlns="http://www.w3.org/2000/svg"><style>.acst0{fill:#262626}</style><path class="acst0" d="M18.9 6.9c-.4-1.6-1-3-1.7-4.1-.1-.2-.3-.3-.5-.3H7.4c-.2 0-.4.1-.5.3-.8 1.1-1.4 2.5-1.8 4.1-.4 1.6-.6 3.3-.6 5.1s.2 3.5.6 5.1c.4 1.6 1 3 1.7 4.1.1.2.3.3.5.3h9.2c.2 0 .4-.1.5-.3.7-1.2 1.3-2.6 1.7-4.1.4-1.6.6-3.3.6-5.1s0-3.5-.4-5.1zm-1.2 10h-2.5c.2-1.5.2-3.2.2-4.9s-.1-3.3-.2-4.9h2.5c.4 1.5.6 3.2.6 4.9s-.2 3.4-.6 4.9zM14.3 12c0 1.7-.1 3.4-.3 4.9H9.9c-.2-1.5-.3-3.2-.3-4.9s.1-3.4.3-4.9H14c.2 1.5.3 3.2.3 4.9zm-.4-6h-3.8c.1-.9.3-1.7.4-2.4h3c.1.7.3 1.5.4 2.4zm-3.8 12h3.8c-.1.9-.3 1.7-.4 2.4h-3c-.1-.7-.3-1.5-.4-2.4zm5-12c-.1-.9-.3-1.6-.4-2.4h1.6c.4.7.8 1.5 1.1 2.4h-2.3zM9.3 3.6c-.1.8-.3 1.6-.4 2.4H6.6c.3-.9.7-1.7 1.1-2.4h1.6zm-3 3.5h2.5c-.2 1.6-.3 3.2-.3 4.9s.1 3.3.2 4.9H6.3c-.4-1.5-.6-3.2-.6-4.9s.2-3.4.6-4.9zM8.9 18c.1.9.3 1.6.4 2.4H7.7c-.4-.7-.8-1.5-1.1-2.4h2.3zm5.8 2.4c.2-.7.3-1.5.4-2.4h2.3c-.3.9-.7 1.7-1.1 2.4h-1.6z"/></symbol><symbol id="bottle" viewBox="0 0 24 24" xmlns="http://www.w3.org/2000/svg"><style>.adst0{fill:#262626}</style><path class="adst0" d="M22.6 4.1l-2.7-2.7c-.5-.5-1.4-.5-1.9 0l-.9.9c-.3.3-.5.8-.3 1.3L14.3 6c-2.1-.7-4.4-.2-6 1.4L2 13.8C.7 15.1.7 17.1 2 18.4L5.6 22c.6.6 1.4 1 2.3 1s1.7-.3 2.3-1l6.4-6.4c1.6-1.6 2.1-3.9 1.4-6l2.4-2.4c.4.1.9 0 1.3-.4l.9-.8c.3-.3.4-.6.4-.9s-.1-.7-.4-1zm-7.9 11.5l-3.8 3.8-6.3-6.3 3.8-3.8 6.3 6.3zm-8.1 5.5L3 17.5c-.7-.7-.7-1.9 0-2.7l.6-.6 6.3 6.3-.6.6c-.8.7-2 .7-2.7 0zM20.8 5.9l-.5-.5-3.9 3.9.2.4c.7 1.7.3 3.6-.9 4.9L9.3 8.3c2.2-2.2 4.8-1 4.9-.9l.4.2 3.9-3.8-.5-.5.9-.9 2.7 2.7-.8.8z"/></symbol><symbol id="cart" viewBox="0 0 21 24" xmlns="http://www.w3.org/2000/svg"><style>.aest0{fill:#262626}</style><path class="aest0" d="M15.9 6.5c0-3-2.4-5.5-5.4-5.5-3 0-5.4 2.5-5.4 5.5H1v13.1C1 21.5 2.5 23 4.4 23h12.2c1.9 0 3.4-1.5 3.4-3.4V6.5h-4.1zm-5.4-4.1c2.2 0 4.1 1.9 4.1 4.1H6.4c0-2.3 1.9-4.1 4.1-4.1zm8.1 17.2c0 1.1-.9 2.1-2 2.1H4.4c-1.1 0-2-.9-2-2.1V7.9h2.7V10c0 .4.3.7.7.7s.7-.3.7-.7V7.9h8.1V10c0 .4.3.7.7.7s.7-.3.7-.7V7.9h2.7v11.7z"/></symbol><symbol id="delete" viewBox="0 0 17 20" xmlns="http://www.w3.org/2000/svg"><style>.afst0{fill:#b3b3b3}</style><path class="afst0" d="M10.9 16.2h.5c.1 0 .3-.1.3-.3V6.3c0-.2-.1-.3-.3-.3h-.5c-.1 0-.3.1-.3.3v9.6c0 .2.2.3.3.3zm-5.3 0h.5c.1 0 .3-.1.3-.3V6.3c0-.2-.1-.3-.3-.3h-.5c-.1 0-.3.1-.3.3v9.6c0 .2.1.3.3.3zM15.7 3.3h-3.5l-1.1-1.6c-.3-.4-.8-.7-1.3-.7H7.2c-.5 0-1 .3-1.3.7L4.8 3.3H1.3c-.2 0-.3.1-.3.2v.6c0 .2.1.3.3.3h.8v12.9c0 .9.7 1.7 1.6 1.7h9.6c.9 0 1.6-.8 1.6-1.7V4.4h.8c.1 0 .3-.1.3-.3v-.6c0-.1-.1-.2-.3-.2zm-9-.9c.1-.2.3-.3.5-.3h2.7c.2 0 .3.1.4.2l.6.9H6.1l.6-.8zm7.2 14.9c0 .3-.2.6-.5.6H3.7c-.3 0-.5-.3-.5-.6V4.4h10.7v12.9zm-5.7-1.1h.5c.1 0 .3-.1.3-.3V6.3c0-.2-.1-.3-.3-.3h-.5c-.1.1-.2.2-.2.3v9.6c0 .2.1.3.2.3z"/></symbol><symbol id="delivery" viewBox="0 0 13 13" xmlns="http://www.w3.org/2000/svg"><style>.agst0{fill:#666}</style><path class="agst0" d="M11.9 5l-1.1-3.3c-.1-.4-.5-.7-.9-.7H3.1c-.4 0-.8.3-1 .7L1.1 5c-.1.1-.1.2-.1.3V11c0 .6.5 1 1 1h9c.6 0 1-.5 1-1V5.3c0-.1 0-.2-.1-.3zm-1 .1H7V2h2.9l1 3.1zM3.1 2H6v3.1H2.1l1-3.1zM2 11V6.2h9V11H2z"/></symbol><symbol id="drop" viewBox="0 0 24 24" xmlns="http://www.w3.org/2000/svg"><style>.ahst0{fill:#262626}</style><path class="ahst0" d="M12 21c-3.6 0-6.5-3-6.5-6.6 0-3.4 5.3-10.4 6-11.1.1-.2.3-.3.5-.3s.4.1.5.3c.6.8 6 7.7 6 11.1 0 3.6-2.9 6.6-6.5 6.6zm0-16.1c-1.8 2.4-5.1 7.3-5.1 9.6 0 2.9 2.3 5.2 5.1 5.2s5.1-2.3 5.1-5.2c0-2.3-3.3-7.2-5.1-9.6z"/><path class="ahst0" d="M12 18.2c-.4 0-.7-.3-.7-.7s.3-.7.7-.7c1.3 0 2.3-1.1 2.3-2.4 0-.4.3-.7.7-.7.4 0 .7.3.7.7 0 2.1-1.6 3.8-3.7 3.8z"/></symbol><symbol id="earth" viewBox="0 0 24 24" xmlns="http://www.w3.org/2000/svg"><style>.aist0{fill:#262626}</style><path class="aist0" d="M9.5 6.8c0-.3-.2-.5-.5-.5-.1 0-.3 0-.3.1L7.6 7.5c-.1.1-.1.2-.1.3 0 .3.2.5.5.5h.7c.1 0 .3 0 .3-.1l.4-.4c.1-.1.1-.2.1-.3v-.7zM12 2.5c-5.2 0-9.5 4.3-9.5 9.5s4.3 9.5 9.5 9.5 9.5-4.3 9.5-9.5-4.3-9.5-9.5-9.5zm1.8 17.6v-1.3c0-1-.8-1.8-1.8-1.8h-.8c-.1 0-.5-.1-.6-.2l-.9-.6c-.1-.1-.2-.3-.2-.4v-.9c0-.2.1-.3.2-.4l1.6-1c.1 0 .2-.1.3-.1h1.2c.1 0 .2 0 .3.1l2 1.7h1.2l.7.7c.4.4.8.6 1.4.6h.6c-1.1 1.7-3 3.1-5.2 3.6zm5.9-5h-1.3c-.2 0-.4-.1-.5-.2l-.7-.7c-.2-.2-.5-.4-.9-.4h-.7L14 12.4c-.3-.3-.7-.4-1.1-.4h-1.2c-.3 0-.6.1-.9.2l-1.6 1c-.5.3-.8.9-.8 1.5v.9c0 .5.3 1.1.7 1.4l.9.6c.3.2.9.5 1.4.5h.6c.3 0 .6.3.6.6v1.5H12c-4.6 0-8.3-3.7-8.3-8.3 0-4.6 3.7-8.3 8.2-8.3l-.6.4c-.4.3-.6.7-.6 1.2v.9c0 .2.1.7.2.9 0 .1-.8.6-.9.7-.3.4-.5.9-.5 1.3v.6c0 1 .8 1.7 1.7 1.7h1c.4 0 .8-.1 1.1-.4.1.1.3.1.5.1h.5c1 0 1.2-.8 1.4-.8.2.3.5.6.9.7-.2.5 0 1.2.4 1.6l.7.7c.3.3.8.5 1.3.5h1.1c-.1.6-.3 1-.4 1.4zm-.7-2.5c-.1 0-.3-.1-.4-.2l-.7-.7c-.1-.1-.1-.4 0-.5.5-.5.4-.3.4-.7 0-.1 0-.2-.1-.3l-.3-.2c-.1-.1-.2-.1-.3-.1h-.5c-.3 0-.5-.4-.3-.6l.3-.3c.1-.1.2-.1.3-.1h.3c.2 0 .4-.2.4-.4v-.4c0-.2-.2-.4-.4-.4h-1.1c-.3 0-.5.2-.5.5v.2c0 .2-.1.4-.4.5l-1 .3c-.2.1-.2.2-.2.3 0 .1-.1.3-.3.3h-.5c-.1 0-.3-.1-.3-.3 0-.3-.5-.3-.6-.1-.3.5-.4.7-.8.7h-1c-.3 0-.5-.2-.5-.5V9c0-.1.1-.3.1-.4.7-.5 1.1-.7 1.1-1.2 0-.1.1-.2.2-.2l1.3-.4c.1 0 .1 0 .1-.1l.9-.9c.2-.2.1-.6-.3-.6h-.7l-.1.8v.3c0 .1-.1.3-.3.3h-.6c-.1 0-.3-.1-.3-.3v-.9c0-.1 0-.2.1-.2L13.7 4c3.7.8 6.5 4.1 6.5 8.1v.6H19z"/></symbol><symbol viewBox="0 0 24 19" id="email" xmlns="http://www.w3.org/2000/svg"><path d="M20.9 1H3.1C1.9 1 1 2 1 3.1v12.8C1 17 1.9 18 3.1 18H21c1.1 0 2.1-1 2.1-2.1V3.1C23 2 22.1 1 20.9 1zM3.1 2.4H21c.4 0 .7.3.7.7V5c-.9.8-2.3 1.9-6.5 5.4-.7.6-2.2 2-3.2 2s-2.4-1.4-3.2-2C4.7 6.9 3.3 5.8 2.4 5V3.1c0-.4.3-.7.7-.7zm17.8 14.2H3.1c-.4 0-.7-.3-.7-.7V6.8c1 .8 2.5 2.1 5.6 4.6.9.7 2.4 2.3 4 2.3s3.1-1.6 4-2.3c3.1-2.5 4.6-3.8 5.6-4.6v9.1c0 .4-.3.7-.7.7z"/></symbol><symbol id="facebook" viewBox="0 0 13 25" xmlns="http://www.w3.org/2000/svg"><style>.akst0{fill:#262626}</style><path id="akFacebook" class="akst0" d="M3.4 5.5v3.2H1v3.9h2.4V24h4.9V12.5h3.3s.3-1.9.5-3.9H8.4V6c-.1-.4.4-1 .9-1H12V1H8.4c-5.1 0-5 3.9-5 4.5z"/></symbol><symbol id="field-email" viewBox="0 0 14 11" xmlns="http://www.w3.org/2000/svg"><style>.alst0{fill:#262626}</style><path class="alst0" d="M11.9 1H2.1C1.5 1 1 1.5 1 2.1v6.8c0 .6.5 1.1 1.1 1.1h9.8c.6 0 1.1-.5 1.1-1.1V2.1c0-.6-.5-1.1-1.1-1.1zm-9.8.8h9.8c.2 0 .4.2.4.4v1c-.5.4-1.2 1-3.5 2.8-.5.3-1.3 1-1.8 1s-1.3-.7-1.7-1.1C3 4.1 2.3 3.5 1.8 3.1v-1c0-.2.1-.3.3-.3zm9.8 7.5H2.1c-.2 0-.4-.2-.4-.4V4.1c.5.4 1.4 1.1 3.1 2.5.5.3 1.3 1.2 2.2 1.2S8.7 7 9.2 6.6c1.7-1.3 2.5-2 3.1-2.5v4.8c0 .2-.2.4-.4.4z"/></symbol><symbol id="field-name" viewBox="0 0 13 15" xmlns="http://www.w3.org/2000/svg"><style>.amst0{fill:#262626}</style><path class="amst0" d="M8.7 8.3c-.7 0-1 .4-2.2.4S5 8.3 4.3 8.3C2.5 8.3 1 9.8 1 11.7v1.1c0 .7.5 1.2 1.2 1.2h8.6c.7 0 1.2-.5 1.2-1.2v-1.1c0-1.9-1.5-3.4-3.3-3.4zm2.5 4.5c0 .2-.2.4-.4.4H2.2c-.2 0-.4-.2-.4-.4v-1.1c0-1.4 1.1-2.6 2.5-2.6.5 0 1 .4 2.2.4s1.7-.4 2.2-.4c1.4 0 2.5 1.2 2.5 2.6v1.1zM6.5 7.5c1.7 0 3.1-1.5 3.1-3.3S8.2 1 6.5 1 3.4 2.5 3.4 4.3s1.4 3.2 3.1 3.2zm0-5.7c1.3 0 2.4 1.1 2.4 2.4S7.8 6.7 6.5 6.7 4.1 5.6 4.1 4.3s1.1-2.5 2.4-2.5z"/></symbol><symbol id="field-password" viewBox="0 0 12 14" xmlns="http://www.w3.org/2000/svg"><style>.anst0{fill:#262626}</style><path class="anst0" d="M6 10.8c-.2 0-.4-.2-.4-.5V8.9c0-.3.2-.5.4-.5s.4.2.4.5v1.5c0 .2-.2.4-.4.4zm5-3.4v4.5c0 .6-.5 1.1-1.1 1.1H2.1c-.6 0-1.1-.5-1.1-1.1V7.4c0-.6.5-1.1 1.1-1.1h.4V4.8C2.4 2.7 4 1 6 1s3.6 1.7 3.6 3.8v1.5h.4c.5 0 1 .5 1 1.1zM3.1 6.3h5.7V4.8c0-1.7-1.3-3-2.9-3S3 3.1 3 4.8v1.5zm7.2 5.6V7.4c0-.2-.2-.4-.4-.4H2.1c-.2 0-.4.2-.4.4v4.5c0 .2.2.4.4.4H10c.1 0 .3-.2.3-.4z"/></symbol><symbol id="field-phone" viewBox="0 0 14 14" xmlns="http://www.w3.org/2000/svg"><style>.aost0{fill:#262626}</style><path class="aost0" d="M12.4 1.6L10.1 1c-.4-.1-.7.1-.9.4L8.1 4c-.1.3 0 .6.3.8l1.3 1c-.9 1.7-2.2 3-3.8 3.8l-1-1.3c-.3-.2-.6-.3-.9-.2L1.4 9.2c-.3.2-.5.5-.4.9l.5 2.4c.1.3.4.5.8.5C8.2 13 13 8.2 13 2.3c0-.4-.2-.7-.6-.7zM2.3 12.3l-.5-2.4 2.5-1.1 1.4 1.7C8.1 9.4 9.4 8 10.6 5.6L8.8 4.3l1.1-2.5 2.3.5c0 5.5-4.4 9.9-9.9 10z"/></symbol><symbol id="glass" viewBox="0 0 24 24" xmlns="http://www.w3.org/2000/svg"><style>.apst0{fill:#262626}</style><path class="apst0" d="M15.1 21.6h-2.4V16c3.5-.4 6.1-3.3 5.8-6.8l-.7-7.7c-.1-.2-.4-.5-.8-.5H7c-.4 0-.7.3-.8.6l-.7 7.7c-.3 3.4 2.3 6.4 5.8 6.8v5.6H8.9c-.7 0-1.2.5-1.2 1.1 0 .1.1.2.2.2h8.2c.1 0 .2-.1.2-.2 0-.7-.5-1.2-1.2-1.2zm1.3-19.2l.4 4.1H7.2l.4-4.1h8.8zM7 9.4l.1-1.5h9.8l.1 1.5c.1.9-.1 1.7-.4 2.4-.8 1.7-2.6 2.8-4.6 2.8s-3.8-1.1-4.6-2.8c-.4-.7-.5-1.5-.4-2.4z"/></symbol><symbol viewBox="0 0 24 24" id="grape" xmlns="http://www.w3.org/2000/svg"><path d="M10.2 20.2c0 1 .8 1.8 1.8 1.8s1.8-.8 1.8-1.8-.8-1.8-1.8-1.8-1.8.8-1.8 1.8zm4.2-12.3c-1 0-1.8.8-1.8 1.8 0 .2.1.5.1.7.7.2 1.2.5 1.6 1.1.4-.5 1-.9 1.6-1.1.1-.2.1-.4.1-.7.2-1.1-.6-1.8-1.6-1.8zm-4.8 0c-1 0-1.8.8-1.8 1.8 0 .2.1.5.1.7.7.2 1.2.5 1.6 1.1.4-.5 1-.9 1.6-1.1.1-.2.1-.4.1-.7.2-1.1-.6-1.8-1.6-1.8zm7.8 1.7c0 .2.1.5.1.7.7.2 1.2.5 1.6 1.1 1 0 1.8-.8 1.8-1.8s-.8-1.8-1.8-1.8-1.7.8-1.7 1.8zM4.8 11.4c.4-.5 1-.9 1.7-1.1.1-.2.1-.4.1-.7 0-1-.8-1.8-1.8-1.8S3 8.6 3 9.6s.8 1.8 1.8 1.8zm12 3.5c1 0 1.8-.8 1.8-1.8s-.8-1.8-1.8-1.8-1.8.9-1.8 1.8c0 .2.1.5.1.7.7.2 1.3.6 1.7 1.1zm-6.6-1.8c0 .2.1.5.1.7.7.2 1.2.5 1.6 1.1.4-.5 1-.9 1.6-1.1.1-.2.1-.4.1-.7 0-1-.8-1.8-1.8-1.8s-1.6.9-1.6 1.8zm-4.8 0c0 1 .8 1.8 1.8 1.8.4-.5 1-.9 1.6-1.1.1-.2.2-.4.2-.7 0-1-.8-1.8-1.8-1.8s-1.8.9-1.8 1.8zm9 5.3c1 0 1.8-.8 1.8-1.8s-.8-1.8-1.8-1.8-1.8.8-1.8 1.8c0 .2.1.5.1.7.7.2 1.3.6 1.7 1.1zm-4.8 0c.4-.5 1-.9 1.7-1.1.1-.2.1-.4.1-.7 0-1-.8-1.8-1.8-1.8s-1.8.8-1.8 1.8.8 1.8 1.8 1.8zM5.2 4.2c.7-.7 1.6-1 2.6-1 2 0 3.6 1.6 3.6 3.6v.6l.6.6.6-.6v-.7c0-.5-.1-1-.3-1.4h.4c1.8 0 3.5-.9 4.6-2.4l-1-.7c-1 1.5-2.8 2.2-4.6 1.7-.9-1.2-2.3-2-3.9-2-1.3.1-2.6.6-3.5 1.5L3.2 4.5l.8.8 1.2-1.1z"/></symbol><symbol id="headset" viewBox="0 0 23 22" xmlns="http://www.w3.org/2000/svg"><style>.arst0{fill:#262626}</style><path class="arst0" d="M22 11.2c0-2.7-1.1-5.3-3.1-7.2s-4.6-3-7.4-3-5.4 1.1-7.4 3S1 8.5 1 11.2v6.7C1 19.6 2.5 21 4.3 21h1.9c.4 0 .8-.3.8-.8 0-.4-.3-.8-.8-.8H4.3c-1 0-1.7-.8-1.7-1.7v-3.6c0-.9.8-1.7 1.7-1.7h1.1v4.7c0 .4.3.8.8.8.4 0 .8-.3.8-.8v-5.5c0-.4-.3-.8-.8-.8H4.3c-.6 0-1.2.2-1.7.5v-.2c0-4.8 4-8.7 9-8.7s9 3.9 9 8.7v.2c-.5-.3-1.1-.5-1.7-.5H17c-.4 0-.8.3-.8.8v8.6c0 .4.3.8.8.8h2.3c.4 0 .8-.3.8-.8 0-.4-.3-.8-.8-.8h-1.5v-7.1h1.1c1 0 1.7.8 1.7 1.7v3.7c0 .4.3.8.8.8.4 0 .8-.3.8-.8v-6.5c-.2.1-.2 0-.2 0z"/></symbol><symbol id="heart" viewBox="0 0 24 21" xmlns="http://www.w3.org/2000/svg"><style>.asst0{fill:#262626}</style><path class="asst0" d="M21.2 2.9C20.1 1.7 18.5 1 16.8 1c-1.3 0-2.4.4-3.5 1.2-.4.3-.9.8-1.3 1.3-.4-.5-.9-1-1.4-1.4C9.6 1.4 8.5 1 7.2 1c-1.7 0-3.3.7-4.4 1.9C1.6 4.1 1 5.7 1 7.4c0 1.8.7 3.5 2.2 5.2 1.3 1.6 3.2 3.1 5.4 5 .7.6 1.6 1.3 2.5 2.1.2.2.6.3.9.3.3 0 .6-.1.9-.3.9-.8 1.8-1.5 2.5-2.1 2.2-1.8 4.1-3.4 5.4-5 1.5-1.7 2.2-3.4 2.2-5.2 0-1.7-.6-3.3-1.8-4.5zm-14-.5c1 0 1.8.3 2.6.9.7.5 1.2 1.2 1.5 1.6.2.3.4.4.7.4s.6-.2.7-.4c.3-.5.8-1.1 1.5-1.6.8-.6 1.7-.9 2.6-.9 1.3 0 2.5.5 3.4 1.4.9.9 1.4 2.2 1.4 3.6 0 1.5-.6 2.8-1.9 4.3-1.2 1.5-3.1 3-5.3 4.8-.7.6-1.6 1.3-2.5 2.1-.9-.7-1.7-1.4-2.5-2.1-2.2-1.8-4-3.3-5.3-4.8C3 10.3 2.4 8.9 2.4 7.4c0-1.4.5-2.7 1.4-3.6.9-.9 2.1-1.4 3.4-1.4z"/></symbol><symbol id="heart-filled" viewBox="0 0 24 21" xmlns="http://www.w3.org/2000/svg"><style>.atst0{fill:#262626}</style><path class="atst0" d="M21.2 2.9C20.1 1.7 18.5 1 16.8 1c-1.3 0-2.4.4-3.5 1.2-.4.3-.9.8-1.3 1.3-.4-.5-.9-1-1.4-1.4C9.6 1.4 8.5 1 7.2 1c-1.7 0-3.3.7-4.4 1.9C1.6 4.1 1 5.7 1 7.4c0 1.8.7 3.5 2.2 5.2 1.3 1.6 3.2 3.1 5.4 5 .7.6 1.6 1.3 2.5 2.1.2.2.6.3.9.3.3 0 .6-.1.9-.3.9-.8 1.8-1.5 2.5-2.1 2.2-1.8 4.1-3.4 5.4-5 1.5-1.7 2.2-3.4 2.2-5.2 0-1.7-.6-3.3-1.8-4.5z"/></symbol><symbol id="instagram" viewBox="0 0 23 23" xmlns="http://www.w3.org/2000/svg"><style>.aust0{fill:#262626}</style><path class="aust0" d="M16.2 1H6.8C3.6 1 1 3.6 1 6.8v9.4C1 19.4 3.6 22 6.8 22h9.4c3.2 0 5.8-2.6 5.8-5.8V6.8C22 3.6 19.4 1 16.2 1zm3.9 15.2c0 2.2-1.8 3.9-3.9 3.9H6.8c-2.2 0-3.9-1.8-3.9-3.9V6.8c0-2.2 1.8-3.9 3.9-3.9h9.4c2.2 0 3.9 1.8 3.9 3.9v9.4z"/><path class="aust0" d="M11.5 6.1c-3 0-5.4 2.4-5.4 5.4 0 3 2.4 5.4 5.4 5.4s5.4-2.4 5.4-5.4c0-3-2.4-5.4-5.4-5.4zm0 8.9c-2 0-3.5-1.6-3.5-3.5C8 9.5 9.5 8 11.5 8S15 9.5 15 11.5 13.5 15 11.5 15zm5.6-10.5c-.4 0-.7.1-1 .4-.3.3-.4.6-.4 1s.1.7.4 1c.3.3.6.4 1 .4s.7-.1 1-.4c.3-.3.4-.6.4-1s-.1-.7-.4-1c-.2-.2-.6-.4-1-.4z"/></symbol><symbol id="location" viewBox="0 0 22 23" xmlns="http://www.w3.org/2000/svg"><style>.avst0{fill:#262626}</style><path class="avst0" d="M13.6 7.7c0-1.5-1.1-2.6-2.4-2.6-1.3 0-2.4 1.2-2.4 2.6s1.1 2.6 2.4 2.6c1.3.1 2.4-1.1 2.4-2.6zm-2.5-1.4c.7 0 1.3.7 1.3 1.5s-.6 1.5-1.3 1.5-1.3-.8-1.3-1.6.6-1.4 1.3-1.4z"/><path class="avst0" d="M17.3 13.6h-2l.7-1.1c1.9-2.7 1.6-7.2-.6-9.5-1.2-1.3-2.8-2-4.4-2-1.6 0-3.2.7-4.4 2-2.2 2.4-2.4 6.8-.6 9.5l.7 1.1h-2L1 22h20l-3.7-8.4zm-9.8 1.2l3.6 5.6 3.6-5.6h2l2.6 6H2.7l2.6-6h2.2zm-.6-3c-1.6-2.3-1.3-6 .5-8 1-1.1 2.3-1.6 3.7-1.6 1.4 0 2.7.6 3.7 1.6 1.8 2 2 5.7.5 8l-4.1 6.5-4.3-6.5z"/></symbol><symbol id="mail" viewBox="0 0 22 18" xmlns="http://www.w3.org/2000/svg"><style>.awst0{fill:#262626}</style><path class="awst0" d="M19.2 1H2.8C1.8 1 1 1.8 1 2.8v12.3c0 1 .8 1.8 1.8 1.8h16.5c1 0 1.8-.8 1.8-1.8V2.8c-.1-1-.9-1.8-1.9-1.8zM19 2.2l-8 8.4-8-8.4h16zM2.2 14.9V3.1L7.8 9l-5.6 5.9zm.8.9l5.6-5.9 2 2.1c.2.2.6.2.8 0l1.9-2 5.6 5.9H3zm16.8-.9L14.2 9l5.6-5.9v11.8z"/></symbol><symbol id="ok" viewBox="0 0 50 50" xmlns="http://www.w3.org/2000/svg"><style>.axst0{fill:#262626}</style><path class="axst0" d="M25 1C11.7 1 1 11.7 1 25s10.7 24 24 24 24-10.7 24-24S38.3 1 25 1zm0 44.9C13.5 45.9 4.1 36.6 4.1 25 4.1 13.5 13.4 4.1 25 4.1c11.5 0 20.9 9.3 20.9 20.9 0 11.5-9.3 20.9-20.9 20.9zm13.7-26.6L21.2 36.6c-.5.5-1.2.4-1.6 0l-8.3-8.4c-.5-.5-.4-1.2 0-1.6l.8-.8c.5-.5 1.2-.4 1.6 0l6.7 6.7 15.8-15.7c.5-.5 1.2-.4 1.6 0l.8.8c.6.5.6 1.2.1 1.7z"/></symbol><symbol id="phone" viewBox="0 0 22 22" xmlns="http://www.w3.org/2000/svg"><style>.ayst0{fill:#262626}</style><path class="ayst0" d="M16.8 13.4c-.4-.4-.9-.7-1.4-.7-.5 0-1 .2-1.4.6l-1.3 1.3c-.1 0-.2-.1-.3-.1h-.1c-.1-.1-.3-.1-.4-.2-1.2-.8-2.4-1.8-3.5-3.2-.5-.7-.9-1.2-1.1-1.8.4-.3.7-.7 1-1l.2-.2.1-.1c.4-.4.6-.9.6-1.4 0-.5-.2-1-.7-1.4L7.4 4c0-.1-.1-.2-.2-.2 0-.1-.1-.2-.2-.2l-.1-.1c-.2-.3-.4-.5-.7-.7-.4-.4-.9-.6-1.4-.6-.5 0-1 .2-1.4.6L1.9 4.2c-.5.6-.8 1.2-.9 2-.1.9.1 1.9.6 3.1.7 1.8 1.7 3.6 3.2 5.4 1.9 2.2 4.1 4 6.6 5.2 1 .5 2.3 1 3.7 1.1h.3c1 0 1.8-.4 2.4-1 .2-.3.5-.5.7-.8l.5-.5c.9-.9.9-2 0-2.9l-2.2-2.4zm.2 5.8c-.4.5-.9.7-1.6.7h-.2c-1.3-.1-2.4-.6-3.3-1-2.4-1.2-4.5-2.8-6.3-4.9-1.4-1.7-2.4-3.3-3-5.1-.4-1-.5-1.8-.5-2.6 0-.5.2-.9.6-1.3l1.4-1.4c.2-.2.4-.3.7-.3.2 0 .4.1.6.3.3.2.6.5.8.7l.4.4 1.2 1.2c.2.2.3.5.3.7s-.1.4-.3.6c-.1.2-.3.3-.4.4l-.1.1-.9.9c-.4.4-.4.8-.3 1 .3.7.7 1.4 1.4 2.2 1.2 1.4 2.4 2.6 3.8 3.4.2.1.4.2.5.3.1.1.3.1.4.2.1.1.3.1.4.1.2 0 .5-.1.6-.3l1.4-1.4c.2-.2.4-.3.6-.3.2 0 .4.1.6.3l2.3 2.3c.4.4.4.9 0 1.3l-.4.4-.1.1c-.1.4-.3.7-.6 1zM11.8 5.7c1.1.2 2.1.7 2.9 1.5.8.8 1.3 1.8 1.5 2.9 0 .3.3.5.6.5h.1c.1 0 .3-.1.4-.2.1-.1.1-.3.1-.4-.2-1.3-.9-2.6-1.8-3.5-1-1-2.2-1.6-3.5-1.8-.3-.1-.6.2-.6.5-.2.2 0 .5.3.5zM21 9.8c-.4-2.2-1.4-4.2-3-5.8-1.6-1.6-3.6-2.6-5.8-3-.3-.1-.6.2-.6.5-.1.3.2.6.5.6 2 .3 3.8 1.3 5.2 2.7S19.5 8 19.9 10c0 .3.3.5.6.5h.1c.1 0 .3-.1.4-.2v-.5z"/></symbol><symbol id="placeholder" viewBox="0 0 24 24" xmlns="http://www.w3.org/2000/svg"><style>.azst0{fill:#262626}</style><path class="azst0" d="M12 5.1C9.7 5.1 7.8 7 7.8 9.3s1.9 4.1 4.3 4.1 4.3-1.9 4.3-4.1-2.1-4.2-4.4-4.2zm0 6.9c-1.6 0-2.8-1.2-2.8-2.8s1.3-2.8 2.8-2.8 2.8 1.2 2.8 2.8S13.6 12 12 12zm0-11C7.3 1 3.5 4.7 3.5 9.3c0 3.3 1.2 4.3 7.6 13.3.4.6 1.3.6 1.7 0 6.4-9.1 7.6-10 7.6-13.3C20.5 4.7 16.7 1 12 1zm0 20.4C5.8 12.7 4.9 12 4.9 9.3c0-1.8.7-3.6 2.1-4.9s3.1-2 5-2 3.7.7 5 2 2.1 3 2.1 4.9c0 2.7-.9 3.4-7.1 12.1z"/></symbol><symbol id="quote" viewBox="0 0 42 30" xmlns="http://www.w3.org/2000/svg"><style>.bast0{fill:#262626}</style><path class="bast0" d="M32.7 11.3c-.1-.9.1-3.1 2.2-6.2.2-.3.2-.7-.1-1-.8-.8-1.4-1.3-1.8-1.7l-.1-.1-1.1-1.1c-.3-.3-.7-.3-1 0-3.9 3.4-8.3 10.4-7.7 19 .4 5.1 4.1 8.8 9 8.8s9-4 9-8.9c-.1-4.6-3.7-8.4-8.4-8.8zm-1.4 1.1c.1.3.4.4.7.4 4.1 0 7.4 3.3 7.4 7.3s-3.3 7.3-7.4 7.3c-4 0-7.1-3.1-7.4-7.4-.7-9.3 4.8-15.5 6.7-17.3l.6.6 1.4 1.4c-2.7 4.3-2.2 7.3-2 7.7zm-20.6-1.1c-.1-.9.1-3.1 2.2-6.2.2-.3.2-.7-.1-1L11 2.3 9.9 1.2c-.3-.3-.7-.3-1 0C5 4.6.6 11.6 1.2 20.2c.4 5.1 4.1 8.8 9 8.8s9-4 9-8.9c-.2-4.6-3.9-8.5-8.5-8.8zm-1.4 1.1c.1.3.4.4.7.4 4.1 0 7.4 3.3 7.4 7.3s-3.3 7.3-7.4 7.3c-4 0-7.1-3.1-7.4-7.4-.7-9.2 4.8-15.4 6.7-17.2.1.2.3.3.5.6l1.4 1.4C8.5 9 9.1 12 9.3 12.4z"/></symbol><symbol id="return" viewBox="0 0 23 22" xmlns="http://www.w3.org/2000/svg"><style>.bbst0{fill:#262626}</style><path class="bbst0" d="M22 15.5c-.1-.4-.6-.7-1-.5l-1.1.3c.6-1.4 1-2.8 1-4.4 0-5.5-4.5-10-9.9-10C5.5 1 1 5.5 1 11s4.5 10 9.9 10c.4 0 .8-.4.8-.8 0-.5-.4-.8-.8-.8-4.6 0-8.3-3.8-8.3-8.4 0-4.6 3.7-8.4 8.3-8.4 4.6 0 8.3 3.8 8.3 8.4 0 1.3-.3 2.5-.8 3.6l-.4-1.1c-.1-.4-.6-.7-1-.5-.4.1-.7.6-.5 1l1 3c.1.3.4.6.8.6h.3l3-1c.3-.2.5-.6.4-1.1z"/></symbol><symbol id="search" viewBox="0 0 21 21" xmlns="http://www.w3.org/2000/svg"><style>.bcst0{fill:#262626}</style><path class="bcst0" d="M19.5 18.4l-4.7-4.5c1.2-1.4 2.1-3.4 2.1-5.2C16.9 4.5 13.3 1 9 1S1 4.4 1 8.7s3.6 7.7 7.9 7.7c1.6 0 3.5-.7 4.9-1.6l4.7 4.6c.2.2.4.3.6.3.1 0 .4 0 .6-.1.4-.4.2-.8-.2-1.2zM9 2.4c3.9 0 6.6 2.7 6.6 6.2-.1 3.6-3.2 6.4-6.7 6.4-3.4 0-6.5-2.6-6.5-6.3 0-3.6 3-6.3 6.6-6.3z"/></symbol><symbol id="select-arrow" viewBox="0 0 72 47" xmlns="http://www.w3.org/2000/svg"><style>.bdst0{fill:#e44157}</style><path class="bdst0" d="M10.9 37.3c-2.1-3.5-4.5-7.3-3.6-7.1.4.1 1.8.7 4.2 1.9 2.5 1.1 6 2.7 10.9 4.1 3.8 1 8.2 2 13.2 2 4.9.1 10.4-.6 15.9-2.7 4.2-1.7 8.5-4.2 11.9-7.8 3.4-3.6 5.8-8.1 6.9-12.8 1-4 .8-8-.3-10.7-.3-.6-.5-1.2-.7-1.6-.2-.4-.5-.7-.7-1-.3-.5-.6-.6-.9-.6-.4.1-.5.8-.4 1.4 0 .2.3 1.1.6 3s.4 4.8-.5 8.8c-.6 2.4-1.8 5.3-3.9 8.4-2.1 3-5.2 6-9.3 8.3-4.1 2.2-9 3.7-14.4 4.1-5.3.4-11-.2-16.5-1.8-3.7-1.1-7.7-2.6-11.4-4.3C10 28 8.5 27.6 9 27.4c.7-.3 5.5-.6 11.5-2.5 1.9-.6 3.6-1.7 2.8-2.4-.9-.8-4.2 0-6 .4-5.9 1.4-10.1 1.8-12.6 2.2-2.5.4-3.5.7-3.7 1-.3.6 1.1 3.4 4.9 9.7 2.2 3.6 4.1 6 5.6 7.6 1.5 1.6 2.5 2.3 3.1 2.5 2 .5 1.2-1.1-.1-3.1s-3-4.5-3.6-5.5z"/></symbol><symbol id="select-arrow-mob" viewBox="0 0 19 32" xmlns="http://www.w3.org/2000/svg"><style>.best0{fill:#e44157}</style><path class="best0" d="M5.3 10.3C6.9 7.9 8.8 5.4 8.9 6c0 .3-.1 1.3-.1 3.2-.1 1.9 0 4.6.6 8 .1.8.3 1.8.5 3 .2.9.3 2 .6 2.9.9 2.6 2.2 4.8 3.5 6.3 2.5 2.7 2.6 1.3 2.2.5-.1-.1-.4-.7-1.1-1.8-.7-1.2-1.6-3-2.6-5.7-.1-.5-.2-1.3-.4-2.3l-.3-1.5c-.1-.5-.2-1.1-.3-1.7-.5-2.6-.7-5.5-.5-8.2.1-1.4 0-2.5.2-2.2.4.4 1.7 3.3 4.6 6.3 1 1 2.1 1.6 2.3 1 .1-.4-.2-1-.6-1.6-.4-.6-1-1.3-1.3-1.7-2.5-3-3.7-5.6-4.5-7.1-.7-1.5-1.1-2.2-1.4-2.2-.3-.2-.8.1-1.7 1-.9.8-2.1 2.2-3.7 4.3C3.2 9 2.2 11 1.6 12.4 1 13.9 1 14.7 1 15.2c.2 1.4 1 .4 1.9-1 .4-.7.9-1.6 1.3-2.3.5-.7.8-1.3 1.1-1.6z"/></symbol><symbol id="store-location" viewBox="0 0 48 47" xmlns="http://www.w3.org/2000/svg"><style>.bfst0{fill:#262626}</style><path class="bfst0" d="M16 32c1.9 2.6 3.8 5 5 6.5.1.1.2.3.3.4h-3.5c-.5 0-.9.4-.9.9s.4.9.9.9H30c.5 0 .9-.4.9-.9s-.4-.9-.9-.9h-3.5c.1-.1.2-.3.3-.4 1.2-1.5 3.1-3.9 5-6.5s3.6-5.3 5-8.1c1.6-3.1 2.4-5.6 2.4-7.6 0-4.1-1.6-7.9-4.5-10.8-.2-.2-.6-.3-.9-.2-.3.1-.6.3-.6.6-.1.3 0 .6.2.9 2.6 2.6 4 6 4 9.6 0 1.7-.7 3.9-2.2 6.8-1.4 2.7-3.1 5.4-4.9 7.9-1.9 2.6-3.7 4.9-4.9 6.4-.4.4-.7.9-1.1 1.3-.1.1-.3.2-.5.2s-.4-.1-.5-.2c-.4-.4-.7-.9-1.1-1.3-1.2-1.5-3.1-3.8-4.9-6.4-1.8-2.5-3.5-5.1-4.9-7.9-1.4-2.8-2.2-5.1-2.2-6.8 0-5.4 3.3-10.3 8.3-12.5 3.4-1.4 7.2-1.4 10.6 0 .3.1.6.1.9-.1.3-.2.4-.5.3-.8 0-.3-.2-.6-.5-.7C22-1 12.9 2.7 9.6 10.5c-.8 1.9-1.2 3.9-1.2 6 0 2 .8 4.5 2.4 7.6 1.7 2.6 3.4 5.3 5.2 7.9z"/><path class="bfst0" d="M24 9.6c.5 0 .9-.4.9-.9s-.4-.9-.9-.9c-3.7 0-6.9 2.6-7.6 6.2-.7 3.6 1.2 7.2 4.6 8.6 1 .4 2 .6 3 .6 2.5 0 5-1.2 6.5-3.4 2-3.1 1.6-7.1-1-9.7-.2-.2-.6-.3-.9-.2-.3.1-.6.3-.6.6s0 .6.2.9c2 2 2.3 5.1.7 7.5-1.6 2.3-4.6 3.3-7.2 2.2-2.6-1.1-4.1-3.9-3.6-6.6.6-2.9 3.1-4.9 5.9-4.9zm22.7 32.8L42 34.1c-.4-.8-1.3-1.3-2.2-1.3h-5.4c-.5 0-.9.4-.9.9s.4.9.9.9h5.4c.3 0 .5.1.6.3l4.7 8.3c.1.2.1.4 0 .6-.1.2-.4.3-.6.3h-41c-.3 0-.5-.1-.6-.3-.1-.2-.1-.4 0-.6L7.6 35c.1-.2.4-.4.6-.3h5.4c.5 0 .9-.4.9-.9s-.4-.9-.9-.9H8.2c-.9 0-1.7.5-2.2 1.3l-4.7 8.3c-.4.7-.4 1.6 0 2.3.5.7 1.3 1.2 2.2 1.2h41c.9 0 1.7-.5 2.1-1.2.5-.7.5-1.6.1-2.4z"/><path class="bfst0" d="M38.5 36.6h-3c-.2 0-.3.1-.5.1l-2.3 1.5c-.4.3-.5.8-.2 1.2.2.3.5.4.7.4.2 0 .3 0 .5-.1l2.1-1.4h2.8c.5 0 .9-.4.9-.9-.1-.4-.5-.8-1-.8zm-4.7 5.5c0 .5.4.9.9.9h6.1c.5 0 .9-.4.9-.9s-.4-.9-.9-.9h-6.1c-.5 0-.9.4-.9.9zm-18.9-2.2c.4 0 .7-.3.9-.6.1-.4 0-.8-.4-1l-2.3-1.5c-.1-.1-.3-.1-.5-.1h-3c-.5 0-.9.4-.9.9s.4.9.9.9h2.8l2.1 1.4h.4zm-7.7 1.3c-.5 0-.9.4-.9.9s.4.9.9.9h6.1c.5 0 .9-.4.9-.9s-.4-.9-.9-.9H7.2z"/></symbol><symbol id="tooltip" viewBox="0 0 12 12" xmlns="http://www.w3.org/2000/svg"><style>.bgst0{fill:#999}</style><circle class="bgst0" cx="6" cy="8.4" r=".5"/><path class="bgst0" d="M6 1C3.2 1 1 3.2 1 6s2.2 5 5 5 5-2.2 5-5-2.2-5-5-5zm0 9.2c-2.3 0-4.2-1.9-4.2-4.2 0-2.3 1.9-4.2 4.2-4.2 2.3 0 4.2 1.9 4.2 4.2 0 2.3-1.9 4.2-4.2 4.2z"/><path class="bgst0" d="M6 3.5c-.9 0-1.6.7-1.6 1.6 0 .2.2.4.4.4s.4-.2.4-.4c0-.4.4-.8.8-.8s.8.4.8.8-.4.8-.8.8c-.2 0-.4.1-.4.3v1c0 .2.2.4.4.4s.4-.2.4-.4v-.6c.7-.2 1.2-.8 1.2-1.5 0-.9-.7-1.6-1.6-1.6z"/></symbol><symbol id="update" viewBox="0 0 19 20" xmlns="http://www.w3.org/2000/svg"><style>.bhst0{fill:#b3b3b3}</style><path class="bhst0" d="M4.6 4.8c2.4-2.1 6-2.4 8.7-.7l-1.5.1c-.2 0-.4.1-.5.2-.1.1-.2.3-.2.5 0 .4.4.7.8.7l3.4-.1c.4 0 .7-.3.7-.7l-.1-3.3c0-.4-.4-.7-.8-.7-.2 0-.4.1-.5.2-.1.1-.2.3-.2.5l.1 1.5c-1.3-.9-2.9-1.5-4.6-1.5-2.3-.1-4.6.6-6.3 2.1C1.2 5.7.2 8.9 1 11.9c.1.3.4.6.7.6h.2c.2 0 .4-.2.5-.3.1-.2.1-.4.1-.6-.6-2.6.2-5.1 2.1-6.8zM18 8.1c-.1-.4-.5-.6-.9-.5-.2 0-.4.2-.5.3-.1.2-.1.4-.1.6.6 2.5-.2 5.1-2.2 6.8-1.3 1.2-3 1.8-4.8 1.8-1.5 0-2.9-.4-4.1-1.2l1.6-.1c.2 0 .4-.1.5-.3.1-.2.2-.3.2-.5 0-.4-.4-.7-.8-.7l-3.4.3c-.2 0-.4.1-.5.3-.1.2-.2.3-.2.5l.3 3.3c0 .4.4.7.8.7H4c.2 0 .4-.1.5-.3.1-.2.2-.3.2-.5L4.6 17c1.3.9 2.9 1.4 4.6 1.5h.4c2.1 0 4.2-.8 5.8-2.2 2.4-2 3.4-5.2 2.6-8.2z"/></symbol><symbol id="update-selection" viewBox="0 0 46 46" xmlns="http://www.w3.org/2000/svg"><style>.bist0{fill:#262626}</style><path class="bist0" d="M36.5 14.3L24 7.3c-.6-.4-1.4-.4-2 0l-12.5 7c-.7.4-1.1 1.1-1.1 1.8v13.8c0 .8.4 1.5 1.1 1.8l12.5 7c.3.2.7.3 1 .3.3 0 .7-.1 1-.3l12.5-6.9c.7-.4 1.1-1.1 1.1-1.8V16.1c0-.7-.4-1.5-1.1-1.8zM22.8 8.8c.1-.1.3-.1.4 0l5 2.8-12 6.7-5.2-2.9 11.8-6.6zm-.7 28l-11.8-6.6c-.1-.1-.2-.2-.2-.3v-13l5.6 3.2 6.4 3.7v13zm-4.2-17.5L30 12.6l5.2 2.9L23 22.2l-5.1-2.9zm18 10.6c0 .1-.1.3-.2.3l-11.8 6.6V23.7l12-6.7v12.9z"/><path class="bist0" d="M17 22.9l-4.6-2.5c-.3-.1-.6-.1-.9 0-.3.2-.4.4-.4.7v3.6c0 .3.2.6.4.8l4.6 2.5c.1.1.3.1.4.1.2 0 .3 0 .4-.1.3-.2.4-.4.4-.7v-3.6c.1-.4-.1-.7-.3-.8zm-1.3 2.9l-2.8-1.6v-1.7l2.8 1.6v1.7zm4.9 6.2l-2.3-1.3c-.4-.2-.9-.1-1.2.3-.2.4-.1.9.3 1.2l2.3 1.3c.1.1.3.1.4.1.3 0 .6-.2.8-.4.2-.5.1-1-.3-1.2z"/><path class="bist0" d="M41 10.3l1.6-1.6c.2-.2.3-.6.2-.9-.1-.3-.4-.5-.8-.5h-4.3c-.5 0-.9.4-.9.9v4.3c0 .3.2.7.5.8.1 0 .2.1.3.1.2 0 .4-.1.6-.3l1.4-1.4c5.4 8 4.5 18.9-2.4 25.8-5.9 5.9-14.7 7.6-22.4 4.3-.4-.2-.9 0-1.1.4-.2.4 0 .9.4 1.1C17 44.4 20 45 23 45c1.3 0 2.7-.1 4-.4 4.4-.8 8.4-2.9 11.6-6.1 3.8-3.8 6-8.8 6.4-14.1.3-5-1.1-10-4-14.1zm-2.4 0V9h1.3l-1.3 1.3zm-26.1 30c-.4-.3-1-.1-1.2.3-.2.4-.1.9.3 1.2.1.1.3.1.4.1.3 0 .6-.1.7-.4.3-.4.2-.9-.2-1.2zm22.1-36c-.4-.3-1-.1-1.2.3-.2.4-.1.9.3 1.2.1.1.3.1.4.1.3 0 .6-.1.7-.4.3-.4.2-1-.2-1.2zm-2.9-1.5C27.7 1.1 23.3.6 19 1.4c-4.4.8-8.4 2.9-11.6 6.1-3.8 3.8-6 8.8-6.4 14.1-.3 5.1 1.1 10.1 4 14.2l-1.6 1.6c-.2.2-.3.6-.2.9.1.3.4.5.8.5h4.3c.5 0 .9-.4.9-.9v-4.3c0-.3-.2-.7-.5-.8-.3-.1-.7-.1-.9.2l-1.4 1.4C1 26.4 1.9 15.5 8.8 8.6 14.6 2.8 23.3 1.1 31 4.4c.4.2.9 0 1.1-.5.2-.4 0-.9-.4-1.1zM7.4 35.7V37H6.1l1.3-1.3z"/></symbol><symbol id="wine-case" viewBox="0 0 44 44" xmlns="http://www.w3.org/2000/svg"><style>.bjst0{fill:#262626}</style><path class="bjst0" d="M43 25.4c0-1.1-.7-2-1.7-2.3v-6c0-3-1.5-5.9-3.9-7.6-.3-.2-.5-.6-.5-1V1.8c0-.5-.4-.8-.8-.8h-3.5c-.5 0-.8.4-.8.8v6.7c0 .4-.2.8-.5 1-1.4 1-2.4 2.3-3.1 3.8-.7-1.5-1.7-2.8-3.1-3.8-.3-.2-.5-.6-.5-1V1.8c0-.5-.4-.8-.8-.8h-3.5c-.5 0-.8.4-.8.8v6.7c0 .4-.2.8-.5 1-1.4 1-2.4 2.3-3.1 3.8-.7-1.5-1.7-2.8-3.1-3.8-.3-.2-.5-.6-.5-1V1.8c0-.5-.4-.8-.8-.8H7.9c-.5 0-.8.4-.8.8v6.7c0 .4-.2.8-.5 1-2.4 1.8-3.9 4.6-3.9 7.6v6c-1 .3-1.7 1.3-1.7 2.3v5.9c0 .7.2 1.3.6 1.7-.4.4-.6 1-.6 1.6v5.9C1 41.9 2.1 43 3.5 43h37.1c1.4 0 2.5-1.1 2.5-2.5v-5.9c0-.6-.2-1.2-.6-1.6.4-.4.6-1 .6-1.6l-.1-6zM4.3 18.1H15V23H4.3v-4.9zm12.3 0h10.7V23H16.6v-4.9zm12.4 0h10.7V23H29v-4.9zm4.4-10.3V5.3h1.9v2.6l-1.9-.1zm1.9-5.2v1h-1.9v-1h1.9zm-3.1 8.2c.5-.3.8-.8 1-1.3h2.2c.2.5.5 1 1 1.3 1.8 1.3 3 3.4 3.2 5.6H29c.2-2.2 1.4-4.3 3.2-5.6zm-11.1-3V5.3H23v2.6l-1.9-.1zm1.8-5.2v1H21v-1h1.9zm-3 8.2c.5-.3.8-.8 1-1.3h2.2c.2.5.5 1 1 1.3 1.8 1.3 3 3.4 3.2 5.6H16.7c.2-2.2 1.3-4.3 3.2-5.6zm-11.2-3V5.3h1.9v2.6l-1.9-.1zm1.9-5.2v1H8.7v-1h1.9zm-3.1 8.2c.5-.3.8-.8 1-1.3h2.2c.2.5.5 1 1 1.3 1.8 1.3 3 3.4 3.2 5.6H4.3c.2-2.2 1.4-4.3 3.2-5.6zm33.9 29.7c0 .5-.4.8-.8.8H3.5c-.5 0-.8-.4-.8-.8v-5.9c0-.5.4-.8.8-.8h15.2c.5 0 .8-.4.8-.8s-.4-.8-.8-.8H3.5c-.5 0-.8-.4-.8-.8v-5.9c0-.5.4-.8.8-.8h37.1c.5 0 .8.4.8.8v5.9c0 .5-.4.8-.8.8H25.4c-.5 0-.8.4-.8.8s.4.8.8.8h15.2c.5 0 .8.4.8.8v5.9z"/><path class="bjst0" d="M35.8 29.2c.2 0 .4-.1.6-.2s.2-.4.2-.6-.1-.4-.2-.6-.4-.2-.6-.2-.4.1-.6.2-.2.4-.2.6.1.4.2.6.4.2.6.2zM7.9 27.6c-.2 0-.4.1-.6.2-.2.2-.3.4-.3.6s.1.4.2.6c.2.2.4.2.6.2s.4-.1.6-.2c.2-.2.2-.4.2-.6s0-.4-.2-.6c-.1-.1-.3-.2-.5-.2zm27.9 9.3c-.2 0-.4.1-.6.2s-.2.4-.2.7.1.4.2.6.4.2.6.2.4-.1.6-.2.2-.4.2-.6-.1-.4-.2-.6-.4-.3-.6-.3zm-27.9 0c-.2 0-.4.1-.6.2-.2.2-.3.4-.3.7s.1.4.2.6c.2.2.4.2.6.2s.4-.1.6-.2c.2-.2.2-.4.2-.6s-.1-.4-.2-.6c-.1-.2-.3-.3-.5-.3zM22 32.2c-.2 0-.4.1-.6.2-.2.2-.2.4-.2.6s.1.4.2.6c.2.2.4.2.6.2s.4-.1.6-.2c.2-.2.2-.4.2-.6s-.1-.4-.2-.6-.4-.2-.6-.2z"/></symbol><symbol id="youtube" viewBox="0 0 22 25" xmlns="http://www.w3.org/2000/svg"><style>.bkst0{fill:#262626}</style><path id="bkYouTube" class="bkst0" d="M17.9 17.8h-1.3v-.7c0-.3.3-.6.6-.6h.1c.3 0 .6.3.6.6v.7zM13 16.3c-.3 0-.6.2-.6.5v3.6c0 .3.3.5.6.5s.6-.2.6-.5v-3.6c0-.3-.3-.5-.6-.5zm8-2V21c0 1.6-1.5 3-3.3 3H4.3C2.5 24 1 22.7 1 21v-6.8c0-1.6 1.5-3 3.3-3h13.5c1.7.1 3.2 1.4 3.2 3.1zM5.2 21.8v-7.1h1.7v-1.1H2.5v1h1.4v7.2h1.3zm5-6.1H8.8v4.7c-.1.3-.6.6-.8 0v-4.7H6.6v5c0 .3 0 .8.4 1 .6.4 1.8-.1 2.1-.7v.8h1.1v-6.1zm4.4 4.4v-3.2c0-1.2-.9-1.9-2.2-1v-2.4H11v8.1h1.1l.1-.5c1.5 1.4 2.4.5 2.4-1zm4.4-.5h-1v.7c0 .3-.3.5-.6.5h-.2c-.3 0-.6-.2-.6-.5v-1.5H19V18c0-.6 0-1.3-.1-1.6-.2-1.1-1.8-1.3-2.7-.7-.3.2-.5.4-.6.8-.1.3-.2.8-.2 1.3v1.9c.1 3.1 4 2.7 3.6-.1zM13.6 9.4c.1.2.2.3.3.4.1.1.3.2.6.2.2 0 .4-.1.5-.2.2-.1.3-.3.4-.5v.5H17V3.5h-1.2v4.9c0 .3-.2.5-.5.5s-.5-.2-.5-.5V3.5h-1.3v5.4c0 .1.1.3.1.5zM8.9 5.8c0-.6.1-1.1.2-1.4.1-.4.3-.6.6-.8.3-.2.6-.3 1.1-.3.4 0 .7.1.9.2.3.1.5.3.6.5.1.2.2.4.3.7.1.2.1.6.1 1v1.6c0 .6 0 1-.1 1.3 0 .3-.1.5-.3.8-.2.2-.4.4-.6.5-.3.1-.6.1-.9.1-.4 0-.7 0-.9-.1-.3-.1-.5-.3-.6-.5-.1-.2-.2-.4-.3-.7 0-.3-.1-.7-.1-1.2V5.8zm1.2 2.5c0 .4.3.6.6.6s.6-.3.6-.6V4.9c0-.4-.3-.6-.6-.6s-.6.3-.6.6v3.4zM5.8 10h1.5V5.2L9 1H7.4l-.9 3.1L5.6 1H4l1.8 4.2V10z"/></symbol></svg>