<?xml version="1.0" encoding="utf-8"?>
<!-- Generator: Adobe Illustrator 21.0.2, SVG Export Plug-In . SVG Version: 6.00 Build 0)  -->
<svg version="1.1" id="flag-icon-css-es" xmlns="http://www.w3.org/2000/svg" xmlns:xlink="http://www.w3.org/1999/xlink" x="0px"
	 y="0px" viewBox="0 0 512 512" style="enable-background:new 0 0 512 512;" xml:space="preserve">
<style type="text/css">
	.st0{fill:#C60B1E;}
	.st1{fill:#FFC400;}
	.st2{fill:none;stroke:#000000;stroke-width:0.1;}
	.st3{fill:#C8B100;}
	.st4{fill:none;stroke:#000000;stroke-width:0.4;}
	.st5{fill:#AD1519;stroke:#000000;stroke-width:0.3;}
	.st6{fill:#C8B100;stroke:#000000;stroke-width:0.4;}
	.st7{fill:#CCCCCC;}
	.st8{fill:none;stroke:#000000;stroke-width:0.5;}
	.st9{fill:#AD1519;}
	.st10{fill:none;stroke:#000000;stroke-width:0.6;}
	.st11{fill:#005BBF;}
</style>
<path class="st0" d="M0,0h512v512H0V0z"/>
<path class="st1" d="M0,128h512v256H0V128z"/>
<g>
	<path class="st2" d="M230.3,201.3c0-1.2,1-2.1,2.2-2.1c1.3,0,2.3,0.9,2.3,2c0,1.2-1,2.2-2.3,2.2
		C231.3,203.4,230.4,202.5,230.3,201.3L230.3,201.3z"/>
	<path class="st3" d="M230.4,192l1.5,1.1l2.1-3.4c-2.6-1.6-4.1-4.5-3.8-7.6c0.2-4.5,5.6-8.1,12.5-8.1c3.5,0,6.7,1,9,2.5l0.2-1.9
		c-2.8-1.5-6-2.3-9.2-2.3c-8,0-14.1,4.4-14.4,9.8c-0.2,3,1,6,3.3,8l-1.2,2"/>
	<path class="st4" d="M230.4,192l1.5,1.1l2.1-3.4c-2.6-1.6-4.1-4.5-3.8-7.6c0.2-4.5,5.6-8.1,12.5-8.1c3.5,0,6.7,1,9,2.5l0.2-1.9
		c-2.8-1.5-6-2.3-9.2-2.3c-8,0-14.1,4.4-14.4,9.8c-0.2,3,1,6,3.3,8l-1.2,2"/>
	<path class="st3" d="M230.5,192c-2.6-1.7-4.2-4.6-4.3-7.7c0-3.5,2.2-6.6,5.7-8.6c-2,1.5-3.4,3.9-3.6,6.4c-0.2,3,1,6,3.3,8
		L230.5,192"/>
	<path class="st3" d="M206.8,195.6c-1.6-1.7-2.5-4-2.5-6.3c0-1.4,0.4-2.8,1-4c2.1-4.5,9-7.8,17.1-7.8c2.2,0,4.4,0.2,6.3,0.7
		c-0.4,0.5-0.8,1-1,1.5c-1.7-0.3-3.5-0.5-5.3-0.5c-7.4,0-13.6,3-15.4,6.8c-0.5,1-0.8,2.2-0.8,3.3c0,2.3,1.1,4.5,2.9,6l-2.7,4.4
		l-1.5-1.2l1.9-3"/>
	<path class="st3" d="M209.5,180.8c-1.8,1.1-3.2,2.6-4.2,4.4c-0.6,1.3-1,2.7-1,4.1c0,2.4,1,4.6,2.5,6.3l-1.7,2.6
		c-1.5-1.9-2.4-4.3-2.4-6.8C202.7,187.1,205.4,183.3,209.5,180.8"/>
	<path class="st4" d="M209.5,180.8c-1.8,1.1-3.2,2.6-4.2,4.4c-0.6,1.3-1,2.7-1,4.1c0,2.4,1,4.6,2.5,6.3l-1.7,2.6
		c-1.5-1.9-2.4-4.3-2.4-6.8C202.7,187.1,205.4,183.3,209.5,180.8L209.5,180.8z"/>
	<path class="st3" d="M255.8,171.4c1.7,0,3.3,1.2,3.7,2.8c0.2,1.4,0.4,3,0.4,4.7v1.2c0,3.6,0.6,6.7,1.3,8.7l-5.5,5.2l-5.5-5.2
		c0.7-2,1.2-5.1,1.3-8.7v-1.2c0-1.7,0.2-3.3,0.5-4.7c0.3-1.6,2-2.8,3.7-2.8"/>
	<path class="st4" d="M255.8,171.4c1.7,0,3.3,1.2,3.7,2.8c0.2,1.4,0.4,3,0.4,4.7v1.2c0,3.6,0.6,6.7,1.3,8.7l-5.5,5.2l-5.5-5.2
		c0.7-2,1.2-5.1,1.3-8.7v-1.2c0-1.7,0.2-3.3,0.5-4.7c0.3-1.6,2-2.8,3.7-2.8H255.8z"/>
	<g>
		<path class="st5" d="M255.3,183.1c6.8,0,13,1,16.8,2.6c2.8,1.1,5.6,1.9,8.6,2.2c2.6,0.3,5,0.4,7,0.2c2.9,0,6.9,0.8,11,2.6
			c2.9,1.2,5.6,2.9,8,5l-1.7,1.5l-0.4,4l-4.4,5l-2.2,2l-5.3,4l-2.6,0.3l-0.8,2.3l-33.7-4l-33.8,4l-0.9-2.3l-2.6-0.2l-5.2-4.2
			l-2.2-1.9l-4.4-5l-0.5-4l-1.6-1.5c2.4-2.1,5.1-3.8,8-5c4-1.8,8-2.6,10.9-2.6c2,0.2,4.4,0.1,7-0.2c3-0.3,5.8-1.1,8.6-2.2
			C242.9,184.1,248.5,183.1,255.3,183.1L255.3,183.1z"/>
		<path class="st6" d="M255.8,217.3c-10.9-0.2-21.7,1.2-32.2,4c0.7-0.3,0.6-1-0.2-3.2c-1-2.6-2.6-2.5-2.6-2.5
			c11.4-3,23.2-4.5,35-4.3c13.8,0,26.2,1.7,35.1,4.3c0,0-1.5-0.1-2.5,2.5c-0.9,2.1-1,3-0.3,3.3C280.1,218.9,268.5,217.3,255.8,217.3
			"/>
		<path class="st4" d="M230.5,192c-2.6-1.7-4.2-4.6-4.3-7.7c0-3.5,2.2-6.6,5.7-8.6c-2,1.5-3.4,3.9-3.6,6.4c-0.2,3,1,6,3.3,8
			L230.5,192"/>
		<path class="st4" d="M206.8,195.6c-1.6-1.7-2.5-4-2.5-6.3c0-1.4,0.4-2.8,1-4c2.1-4.5,9-7.8,17.1-7.8c2.2,0,4.4,0.2,6.3,0.7
			c-0.4,0.5-0.8,1-1,1.5c-1.7-0.3-3.5-0.5-5.3-0.5c-7.4,0-13.6,3-15.4,6.8c-0.5,1-0.8,2.2-0.8,3.3c0,2.3,1.1,4.5,2.9,6l-2.7,4.4
			l-1.5-1.2l1.9-3V195.6z"/>
		<path class="st3" d="M255.8,173c0.9,0,1.7,0.6,1.9,1.5c0.2,1.5,0.4,3,0.4,4.5v1.1c0,3.4,0.5,6.4,1.2,8.2l-3.6,3.5l-3.6-3.5
			c0.7-1.8,1.2-4.8,1.2-8.2V179c0-1.6,0.2-3.1,0.5-4.5c0.2-0.8,1-1.4,2-1.4"/>
	</g>
	<path class="st3" d="M281,192l-1.4,1.1l-2.2-3.4c2.7-1.6,4.2-4.5,3.9-7.6c-0.2-4.5-5.7-8.1-12.5-8.1c-3.2-0.1-6.3,0.8-9,2.5
		c-0.1-0.6-0.2-1.3-0.3-1.9c2.8-1.6,6.1-2.4,9.3-2.3c7.9,0,14,4.4,14.4,9.8c0.2,3-1,6-3.3,8L281,192"/>
	<path class="st4" d="M281,192l-1.4,1.1l-2.2-3.4c2.7-1.6,4.2-4.5,3.9-7.6c-0.2-4.5-5.7-8.1-12.5-8.1c-3.2-0.1-6.3,0.8-9,2.5
		c-0.1-0.6-0.2-1.3-0.3-1.9c2.8-1.6,6.1-2.4,9.3-2.3c7.9,0,14,4.4,14.4,9.8c0.2,3-1,6-3.3,8L281,192"/>
	<path class="st3" d="M280.9,192c2.7-2,4.4-4.7,4.4-7.7c0-3.5-2.3-6.6-5.7-8.6c2.3,1.7,3.6,4.4,3.6,7.3c0,2.8-1.3,5.4-3.3,7.2
		L280.9,192"/>
	<path class="st4" d="M280.9,192c2.7-2,4.4-4.7,4.4-7.7c0-3.5-2.3-6.6-5.7-8.6c2.3,1.7,3.6,4.4,3.6,7.3c0,2.8-1.3,5.4-3.3,7.2
		L280.9,192"/>
	<path class="st3" d="M304.7,195.6c2.6-2.8,3.1-6.9,1.5-10.3c-2.2-4.5-9-7.8-17.2-7.8c-2.1,0-4.2,0.2-6.3,0.7c0.5,0.5,0.8,1,1.1,1.5
		c1.7-0.3,3.5-0.5,5.2-0.5c7.5,0,13.7,3,15.5,6.8c0.5,1,0.8,2.1,0.8,3.3c0,2.3-1.1,4.6-3,6l2.8,4.4l1.4-1.2l-1.8-3"/>
	<path class="st4" d="M304.7,195.6c2.6-2.8,3.1-6.9,1.5-10.3c-2.2-4.5-9-7.8-17.2-7.8c-2.1,0-4.2,0.2-6.3,0.7c0.5,0.5,0.8,1,1.1,1.5
		c1.7-0.3,3.5-0.5,5.2-0.5c7.5,0,13.7,3,15.5,6.8c0.5,1,0.8,2.1,0.8,3.3c0,2.3-1.1,4.6-3,6l2.8,4.4l1.4-1.2l-1.8-3V195.6z"/>
	<path class="st3" d="M302,180.8c1.8,1.1,3.2,2.6,4.2,4.4c0.6,1.3,1,2.7,1,4.1c0,2.4-1,4.6-2.5,6.3l1.6,2.6c1.6-1.9,2.5-4.3,2.5-6.8
		C308.8,187.1,306.1,183.3,302,180.8"/>
	<path class="st4" d="M302,180.8c1.8,1.1,3.2,2.6,4.2,4.4c0.6,1.3,1,2.7,1,4.1c0,2.4-1,4.6-2.5,6.3l1.6,2.6c1.6-1.9,2.5-4.3,2.5-6.8
		C308.8,187.1,306.1,183.3,302,180.8L302,180.8z"/>
</g>
<path class="st7" d="M253.8,352.6c-18.1-0.1-35.9-3.1-52.1-8.8c-11.5-4-18.8-12.4-18.9-21.6V288h141.7v34c0,9.5-7.4,17.7-18.9,21.8
	c-16.2,5.7-33.9,8.7-51.8,8.7"/>
<path class="st8" d="M253.8,352.6c-18.1-0.1-35.9-3.1-52.1-8.8c-11.5-4-18.8-12.4-18.9-21.6V288h141.7v34c0,9.5-7.4,17.7-18.9,21.8
	c-16.2,5.7-33.9,8.7-51.8,8.7L253.8,352.6z"/>
<path class="st9" d="M253.5,288h71v-57h-71V288z"/>
<path class="st8" d="M253.5,288h71v-57h-71V288z"/>
<path class="st9" d="M253.5,322.1c-0.5,13.8-16.2,24.7-35.3,24.4c0,0,0,0,0,0c-19.6,0-35.6-11-35.6-24.4V288h70.9v34"/>
<path class="st9" d="M182.7,288h70.9v-57h-70.9V288z"/>
<path class="st8" d="M182.7,288h70.9v-57h-70.9V288z"/>
<path class="st8" d="M253.5,322.1c-0.5,13.8-16.2,24.7-35.3,24.4c0,0,0,0,0,0c-19.6,0-35.6-11-35.6-24.4V288h70.9v34"/>
<path class="st9" d="M324.7,288v34c-0.5,13.9-16.4,24.8-35.5,24.4c0,0,0,0,0,0c-19.6,0-35.6-11-35.6-24.4v-34H324.7"/>
<path class="st8" d="M324.7,288v34c-0.5,13.9-16.4,24.8-35.5,24.4c0,0,0,0,0,0c-19.6,0-35.6-11-35.6-24.4v-34H324.7"/>
<path class="st9" d="M230.8,287.8c0-10.4,10.3-18.8,22.9-18.8c12.5,0,23,8.4,23,18.7c0,10.4-10.3,18.8-23,18.8
	S230.8,298.1,230.8,287.8"/>
<path class="st10" d="M230.8,287.8c0-10.4,10.3-18.8,22.9-18.8c12.5,0,23,8.4,23,18.7c0,10.4-10.3,18.8-23,18.8
	S230.8,298.1,230.8,287.8z"/>
<path class="st11" d="M237.5,287.7c0-7.6,7.3-13.7,16.1-13.7c9,0,16.3,6.1,16.3,13.7s-7.3,13.7-16.1,13.7
	C244.8,301.4,237.5,295.3,237.5,287.7"/>
<path class="st10" d="M237.5,287.7c0-7.6,7.3-13.7,16.1-13.7c9,0,16.3,6.1,16.3,13.7s-7.3,13.7-16.1,13.7
	C244.8,301.4,237.5,295.3,237.5,287.7L237.5,287.7z"/>
</svg>
